<?xml version="1.0" encoding="UTF-8"?>
<svg width="133px" height="12px" viewBox="0 0 133 12" version="1.1" xmlns="http://www.w3.org/2000/svg" xmlns:xlink="http://www.w3.org/1999/xlink">
    <!-- Generator: Sketch 49.2 (51160) - http://www.bohemiancoding.com/sketch -->
    <title>tagline-blue</title>
    <desc>Created with Sketch.</desc>
    <defs></defs>
    <g id="tagline-blue" stroke="none" stroke-width="1" fill="none" fill-rule="evenodd">
        <path d="M0.276,6.12 L2.508,6.12 C2.556,7.128 3.18,7.452 4.128,7.452 C4.8,7.452 5.496,7.212 5.496,6.576 C5.496,5.82 4.272,5.676 3.036,5.328 C1.812,4.98 0.528,4.428 0.528,2.856 C0.528,0.984 2.412,0.252 4.02,0.252 C5.724,0.252 7.44,1.08 7.452,3.012 L5.22,3.012 C5.256,2.232 4.524,1.98 3.84,1.98 C3.36,1.98 2.76,2.148 2.76,2.712 C2.76,3.372 3.996,3.492 5.244,3.84 C6.48,4.188 7.728,4.764 7.728,6.312 C7.728,8.484 5.88,9.18 3.996,9.18 C2.028,9.18 0.288,8.316 0.276,6.12 Z M10.322,9 L10.322,0.432 L17.15,0.432 L17.15,2.22 L12.554,2.22 L12.554,3.72 L16.754,3.72 L16.754,5.448 L12.554,5.448 L12.554,7.08 L17.27,7.08 L17.27,9 L10.322,9 Z M28.1799999,8.832 L27.1599999,9.888 L25.9839999,8.736 C25.4199999,9.024 24.7479999,9.18 23.9919999,9.18 C21.2919999,9.18 19.7679999,7.2 19.7679999,4.716 C19.7679999,2.232 21.2919999,0.252 23.9919999,0.252 C26.6919999,0.252 28.2159999,2.232 28.2159999,4.716 C28.2159999,5.94 27.8439999,7.032 27.1479999,7.836 L28.1799999,8.832 Z M23.7639999,6.552 L24.7599999,5.508 L25.5999999,6.324 C25.8759999,5.868 25.9839999,5.292 25.9839999,4.716 C25.9839999,3.444 25.4319999,2.172 23.9919999,2.172 C22.5519999,2.172 21.9999999,3.444 21.9999999,4.716 C21.9999999,5.988 22.5519999,7.26 23.9919999,7.26 C24.1599999,7.26 24.3039999,7.248 24.4359999,7.212 L23.7639999,6.552 Z M38.3819999,0.432 L38.3819999,5.46 C38.3819999,7.944 37.2419999,9.18 34.6499999,9.18 C32.0579999,9.18 30.9179999,7.944 30.9179999,5.46 L30.9179999,0.432 L33.1499999,0.432 L33.1499999,5.592 C33.1499999,6.696 33.5579999,7.26 34.6499999,7.26 C35.7419999,7.26 36.1499999,6.696 36.1499999,5.592 L36.1499999,0.432 L38.3819999,0.432 Z M41.4199998,9 L41.4199998,0.432 L48.2479998,0.432 L48.2479998,2.22 L43.6519998,2.22 L43.6519998,3.72 L47.8519998,3.72 L47.8519998,5.448 L43.6519998,5.448 L43.6519998,7.08 L48.3679998,7.08 L48.3679998,9 L41.4199998,9 Z M51.1659998,9 L51.1659998,0.432 L53.4579998,0.432 L56.4339998,5.712 L56.4579998,5.712 L56.4579998,0.432 L58.5579998,0.432 L58.5579998,9 L56.2659998,9 L53.2899998,3.66 L53.2659998,3.66 L53.2659998,9 L51.1659998,9 Z M69.5519997,3.492 L67.3199997,3.492 C67.1999997,2.628 66.5279997,2.172 65.5919997,2.172 C64.1519997,2.172 63.5999997,3.444 63.5999997,4.716 C63.5999997,5.988 64.1519997,7.26 65.5919997,7.26 C66.6359997,7.26 67.2359997,6.66 67.3199997,5.676 L69.5519997,5.676 C69.4319997,7.884 67.8119997,9.18 65.6399997,9.18 C63.0479997,9.18 61.3679997,7.2 61.3679997,4.716 C61.3679997,2.232 63.0479997,0.252 65.6399997,0.252 C67.4879997,0.252 69.4919997,1.428 69.5519997,3.492 Z M72.2899997,9 L72.2899997,0.432 L79.1179997,0.432 L79.1179997,2.22 L74.5219997,2.22 L74.5219997,3.72 L78.7219997,3.72 L78.7219997,5.448 L74.5219997,5.448 L74.5219997,7.08 L79.2379997,7.08 L79.2379997,9 L72.2899997,9 Z M82.0719996,9 L82.0719996,6.768 L84.3039996,6.768 L84.3039996,9 L82.0719996,9 Z M92.7319995,9 L92.7319995,0.432 L99.0439995,0.432 L99.0439995,2.22 L94.9639995,2.22 L94.9639995,3.972 L98.4919995,3.972 L98.4919995,5.7 L94.9639995,5.7 L94.9639995,9 L92.7319995,9 Z M104.397999,2.808 L103.425999,5.808 L105.369999,5.808 L104.421999,2.808 L104.397999,2.808 Z M100.077999,9 L103.281999,0.432 L105.549999,0.432 L108.753999,9 L106.425999,9 L105.897999,7.464 L102.909999,7.464 L102.369999,9 L100.077999,9 Z M110.459999,6.12 L112.691999,6.12 C112.739999,7.128 113.363999,7.452 114.311999,7.452 C114.983999,7.452 115.679999,7.212 115.679999,6.576 C115.679999,5.82 114.455999,5.676 113.219999,5.328 C111.995999,4.98 110.711999,4.428 110.711999,2.856 C110.711999,0.984 112.595999,0.252 114.203999,0.252 C115.907999,0.252 117.623999,1.08 117.635999,3.012 L115.403999,3.012 C115.439999,2.232 114.707999,1.98 114.023999,1.98 C113.543999,1.98 112.943999,2.148 112.943999,2.712 C112.943999,3.372 114.179999,3.492 115.427999,3.84 C116.663999,4.188 117.911999,4.764 117.911999,6.312 C117.911999,8.484 116.063999,9.18 114.179999,9.18 C112.211999,9.18 110.471999,8.316 110.459999,6.12 Z M127.297999,0.432 L127.297999,2.352 L124.741999,2.352 L124.741999,9 L122.509999,9 L122.509999,2.352 L119.953999,2.352 L119.953999,0.432 L127.297999,0.432 Z M129.843999,9 L129.843999,6.768 L132.075999,6.768 L132.075999,9 L129.843999,9 Z" id="Sequence.-Fast." fill="#6EB1FF"></path>
    </g>
</svg>