<?xml version="1.0" encoding="UTF-8"?>
<svg width="2488px" height="1531px" viewBox="0 0 2488 1531" version="1.1" xmlns="http://www.w3.org/2000/svg" xmlns:xlink="http://www.w3.org/1999/xlink">
    <!-- Generator: Sketch 42 (36781) - http://www.bohemiancoding.com/sketch -->
    <title>Group 7</title>
    <desc>Created with Sketch.</desc>
    <defs>
        <linearGradient x1="7.80569335%" y1="8.42043706%" x2="13.6853769%" y2="14.0093993%" id="linearGradient-1">
            <stop stop-color="#82CE66" offset="0%"></stop>
            <stop stop-color="#82CE66" stop-opacity="0" offset="100%"></stop>
        </linearGradient>
        <linearGradient x1="81.5100728%" y1="81.4320865%" x2="67.3504142%" y2="67.1831214%" id="linearGradient-2">
            <stop stop-color="#82CE66" offset="0%"></stop>
            <stop stop-color="#82CE66" stop-opacity="0" offset="100%"></stop>
        </linearGradient>
        <linearGradient x1="21.2690724%" y1="77.826793%" x2="52.5100179%" y2="50%" id="linearGradient-3">
            <stop stop-color="#82CE66" offset="0%"></stop>
            <stop stop-color="#82CE66" stop-opacity="0" offset="100%"></stop>
        </linearGradient>
        <linearGradient x1="73.6921826%" y1="27.8336822%" x2="39.9296404%" y2="60.2087335%" id="linearGradient-4">
            <stop stop-color="#82CE66" offset="0%"></stop>
            <stop stop-color="#82CE66" stop-opacity="0" offset="100%"></stop>
        </linearGradient>
        <linearGradient x1="13.6890302%" y1="69.6685998%" x2="50%" y2="39.8930396%" id="linearGradient-5">
            <stop stop-color="#82CE66" offset="0%"></stop>
            <stop stop-color="#82CE66" stop-opacity="0" offset="100%"></stop>
        </linearGradient>
        <linearGradient x1="62.1974837%" y1="85.1049471%" x2="35.4924161%" y2="74.2140147%" id="linearGradient-6">
            <stop stop-color="#82CE66" offset="0%"></stop>
            <stop stop-color="#82CE66" stop-opacity="0" offset="100%"></stop>
        </linearGradient>
    </defs>
    <g id="Homepage" stroke="none" stroke-width="1" fill="none" fill-rule="evenodd">
        <g id="01_06-Landing-Page" transform="translate(-913.000000, 0.000000)">
            <g id="Group-7" transform="translate(913.000000, -803.000000)">
                <g id="Group" opacity="0.243295243" transform="translate(5.000000, 0.000000)">
                    <g id="Page-1" opacity="0.950326493" transform="translate(975.000000, 979.000000)" stroke-width="2" stroke="#414141">
                        <polyline id="Stroke-1" points="35.3400391 139.756329 35.3400391 399.842277 36.727553 402.246306 261.955533 532.284861 268.557271 534.494447 493.776413 404.455892 498.990638 399.842277 498.990638 139.756329"></polyline>
                        <polyline id="Stroke-3" points="193.063256 265.572807 207.777974 165.469723 499.341493 281.13713"></polyline>
                        <path d="M162.165884,475.820217 L183.641418,329.713553" id="Stroke-4"></path>
                        <path d="M279.10061,165.011013 L394.980118,73.2690027" id="Stroke-5"></path>
                        <path d="M394.982769,462.649316 L279.226988,371.022205" id="Stroke-6"></path>
                        <g id="Group-11" transform="translate(0.000000, 0.178550)">
                            <polygon id="Stroke-7" points="130.310508 40.7845382 0.281892167 266.012057 0.281892167 268.804974 130.310508 494.032493 134.923771 499.255954 394.981002 499.255954 401.81252 497.868334 531.849973 272.623139 531.849973 262.193893 401.81252 36.9575353 394.981002 35.5699153 134.923771 35.5699153"></polygon>
                            <polyline id="Stroke-9" points="498.989754 395.241903 498.989754 135.155956 493.77553 130.54234 268.556387 0.503785606 261.954649 2.71337159 36.7266692 132.751926 35.3391553 135.155956 35.3391553 395.241903"></polyline>
                        </g>
                        <path d="M280.335232,500.427934 L225.886357,363.150775" id="Stroke-12"></path>
                        <path d="M226.21335,172.787872 L280.706414,35.395815" id="Stroke-13"></path>
                        <polyline id="Stroke-14" points="178.779816 244.400554 164.674898 208.852734 202.208475 203.337608"></polyline>
                        <path d="M184.303359,205.966131 L162.801312,59.7268921" id="Stroke-15"></path>
                        <polyline id="Stroke-16" points="499.991062 254.41263 208.427543 370.080037 188.790244 236.506145"></polyline>
                        <polyline id="Stroke-17" points="202.919024 332.550661 165.058452 326.982504 179.048482 291.717512"></polyline>
                        <path d="M275.985332,343.288365 L228.421,336.297235" id="Stroke-18"></path>
                        <path d="M475.385225,372.599849 L298.455104,346.597441" id="Stroke-19"></path>
                        <path d="M298.251837,189.21305 L475.014043,163.228319" id="Stroke-20"></path>
                        <path d="M227.032602,199.682069 L275.896071,192.496495" id="Stroke-21"></path>
                        <path d="M164.608615,255.672978 L72.8647792,139.758097" id="Stroke-22"></path>
                        <g id="Group-27" transform="translate(71.880992, 139.252161)">
                            <path d="M390.325502,0.504168187 L195.667017,246.466442 L144.850424,182.264712 L144.859261,182.291227 L77.1538834,128.713186 C77.1538834,128.713186 141.288843,77.9457379 141.297681,77.9457379 L194.915815,10.2086699 L389.583138,256.170944" id="Stroke-23" stroke-linejoin="round"></path>
                            <path d="M0.242306374,256.168292 L91.888928,140.36831" id="Stroke-25"></path>
                        </g>
                    </g>
                    <g id="Page-1" transform="translate(1201.000000, 1206.000000)" fill="#414141" opacity="0.95">
                        <path d="M78.3099493,40.502779 L74.6613944,46.788339 L74.6613944,33.012661 L78.3099493,39.2970583 L78.3099493,40.502779 Z M70.4082352,54.1133535 L61.726349,44.8780218 L73.4986937,40.7608985 L73.4986937,48.7905097 L70.4082352,54.1133535 Z M73.4986937,58.8943789 L72.9766411,59.3548083 L66.5771364,63.0289426 L73.4986937,51.1066095 L73.4986937,58.8943789 Z M64.5598506,64.1869925 L58.77774,67.506503 L42.9278039,55.0307244 L45.6520116,52.126298 L69.5838804,55.5341738 L64.5598506,64.1869925 Z M59.4765231,72.9432916 L58.8498274,73.0781649 L51.4097056,73.0781649 L63.3924991,66.197302 L59.4765231,72.9432916 Z M49.0738398,73.0781649 L42.398775,73.0781649 L34.8947046,54.2645046 L36.6887518,53.6366462 L39.7350277,57.4630943 L40.6140294,57.499138 L42.1301912,55.8818213 L57.6906148,68.1308733 L49.0738398,73.0781649 Z M40.26987,78.1324249 L39.6606149,77.9382539 L33.2134394,74.2373775 L47.0623676,74.2327267 L40.26987,78.1324249 Z M25.414043,69.759817 L28.3940449,49.6055629 L30.20437,49.8706586 L30.9578,54.9109662 L31.7251825,55.3737211 L33.7959525,54.6493586 L41.1465464,73.0781649 L31.194991,73.0781649 L25.414043,69.759817 Z M21.0260105,73.0781649 L20.596974,72.6072711 L16.8716809,66.1914885 L28.875403,73.0781649 L21.0260105,73.0781649 Z M12.3731918,58.443251 L25.0873241,42.4665805 L26.5302357,43.6025391 L24.6420097,48.3335683 L25.0977884,49.1242048 L27.2429712,49.438134 L24.3315686,69.1377721 L15.7089802,64.1869925 L12.3731918,58.443251 Z M6.81548239,59.0815737 L6.76897437,59.0013473 L6.76897437,51.0973079 L13.7056468,63.0370815 L6.81548239,59.0815737 Z M6.76897437,31.011653 L11.7918414,22.3588343 L24.2955249,38.066921 C23.7269643,38.5145607 23.1316615,38.9831291 22.4758983,39.4982056 L22.4758983,40.4120883 L24.1734414,41.7480314 L11.7464961,57.363102 L6.76897437,48.789347 L6.76897437,31.011653 Z M6.76897437,20.7996527 L6.81548239,20.7194263 L13.7079722,16.7592677 L6.76897437,28.7036921 L6.76897437,20.7996527 Z M15.7113056,15.608194 L24.4083069,10.612069 L27.3406381,30.4372789 L25.0419788,30.7732994 L24.5862001,31.5639359 L26.4918666,36.3391477 C26.0930602,36.6519142 25.6663491,36.9879347 25.208245,37.3483719 L12.4185371,21.2786854 L15.7113056,15.608194 Z M20.5667437,7.24488775 L21.0306613,6.72399783 L28.8614506,6.72167243 L16.875169,13.6025353 L20.5667437,7.24488775 Z M31.1810386,6.72050973 L41.2407251,6.71702163 L33.8459486,25.2574472 L31.629841,24.4819258 L30.8624586,24.9481688 L30.1287944,30.0291709 L28.4905491,30.2686873 L25.491944,9.98886144 L31.1810386,6.72050973 Z M39.5548091,1.91041688 L40.2733581,1.67090053 L47.0542287,5.56129712 L33.199487,5.56129712 L39.5548091,1.91041688 Z M57.775492,11.7119839 L42.1278658,24.030798 L40.5035729,22.301862 L39.6257338,22.3379057 L36.5492277,26.2027229 L34.9447008,25.6411384 L42.4929538,6.71702163 L49.0668636,6.71469623 L57.775492,11.7119839 Z M58.7347201,6.71237082 L59.4788485,6.86235922 L63.3924991,13.603698 L51.3945905,6.71469623 L58.7347201,6.71237082 Z M69.5978328,24.2924056 L45.6368965,27.7630672 L42.9278039,24.8807322 L58.8626171,12.3351915 L64.5517117,15.6000551 L69.5978328,24.2924056 Z M72.9324585,20.4078225 L73.4986937,20.9066211 L73.4986937,28.6943905 L66.5678348,16.7569423 L72.9324585,20.4078225 Z M61.7112339,35.0008792 L70.4221876,25.7109005 L73.4986937,31.0093276 L73.4986937,39.1226532 L61.7112339,35.0008792 Z M57.0825224,39.9377064 L60.8415338,35.9287144 L72.3185525,39.9411945 L60.8554862,43.9513493 L57.0825224,39.9377064 Z M47.919278,49.7078805 L60.5264419,45.2989194 L68.9606728,54.2714808 L46.6240294,51.089169 L47.919278,49.7078805 Z M47.9018375,30.1721831 L46.6089143,28.7967082 L68.9734626,25.557424 L60.5113268,34.5811442 L47.9018375,30.1721831 Z M56.2849097,40.7876406 L59.6544163,44.3710842 L49.6389124,47.8754642 L56.2849097,40.7876406 Z M56.283747,39.0889349 L49.6272854,32.0069249 L59.6416266,35.5089794 L56.283747,39.0889349 Z M45.5241146,29.3408521 L37.706115,26.6073427 L40.1163935,23.587809 L45.5241146,29.3408521 Z M35.7818453,27.1654391 L31.7740159,32.2010959 L31.7926191,32.216211 C31.6054243,32.3510843 31.3205626,32.5650212 30.8892007,32.8963909 L31.9123773,25.8132182 L35.7818453,27.1654391 Z M29.955552,31.2302408 L29.5660473,33.925381 C28.9986493,34.3695327 28.2963781,34.9206528 27.4441185,35.5892058 L25.9395837,31.8174046 L29.955552,31.2302408 Z M23.7757977,39.9551469 C24.8675737,39.0970738 27.2941301,37.1855938 29.3265309,35.5868804 L28.7079741,39.8725952 L29.3823405,44.3780604 L23.7757977,39.9551469 Z M25.9953934,48.0800995 L27.4824876,44.3513183 L29.6311585,46.0418852 L30.0241513,48.6695888 L25.9953934,48.0800995 Z M32.003068,54.0435915 L30.9484984,47.0790142 L32.3367631,48.1719529 L35.9213694,52.67393 L32.003068,54.0435915 Z M37.0840701,52.2669848 L33.2053005,47.3941061 L30.6973551,45.4163522 L29.8706748,39.9528215 L30.6520097,34.5439378 C31.7565754,33.673075 32.5518627,33.0487047 32.5844183,33.0219626 L36.9375698,27.5700589 L47.2495624,31.1755938 L55.487297,39.9388691 L47.2658402,48.7044698 L37.0840701,52.2669848 Z M40.2256874,56.213191 L37.8502898,53.2308637 L45.5462059,50.5380488 L40.2256874,56.213191 Z M5.60627365,46.7860136 L1.63565071,39.947008 L1.63565071,39.853992 L5.60627365,33.0149864 L5.60627365,46.7860136 Z M79.3947491,38.8494186 L74.6613944,30.6965611 L74.6613944,20.6426881 L74.4637353,20.2066753 L73.6056622,19.4671977 L65.4097849,14.7617479 L60.3531995,6.05311952 L59.9660201,5.77407135 L58.8498274,5.56129712 L49.3854436,5.56129712 L40.6268192,0.532616531 L40.1536,0.484945802 L39.0815899,0.853521928 L30.8822245,5.56129712 L20.7690537,5.56129712 L20.3353663,5.75546814 L19.6598372,6.5158744 L14.874161,14.7524463 L6.10158416,19.7892658 L5.88764722,20.0008773 L5.6841746,20.3508502 L5.60627365,20.6426881 L5.60627365,30.7047001 L0.550850948,39.4051895 L0.47295,39.6970274 L0.47295,40.1039726 L0.550850948,40.3958105 L5.60627365,49.0962999 L5.60627365,59.1571492 L5.6841746,59.4489871 L5.88764722,59.8001227 L6.10158416,60.0117342 L14.8706729,65.0439029 L19.6586745,73.2851256 L20.3342036,74.0455319 L20.7690537,74.2408656 L30.8961769,74.2385402 L39.1873957,78.9939861 L40.1547627,79.3160542 L40.6268192,79.2683835 L49.399396,74.2327267 L58.9649348,74.2292386 L59.9660201,74.0269287 L60.3531995,73.7490432 L65.4097849,65.0404148 L73.6056622,60.3338023 L74.4637353,59.5943247 L74.6613944,59.1571492 L74.6613944,49.1044389 L79.3947491,40.9515814 L79.47265,40.6597436 L79.47265,39.1412564 L79.3947491,38.8494186 Z" id="Fill-1"></path>
                    </g>
                    <g id="Page-1" opacity="0.950326493" stroke-width="2" stroke="#414141">
                        <polyline id="Stroke-3" points="900.082829 1237.50523 968.760733 770.295137 2329.57317 1310.14844"></polyline>
                        <path d="M755.875731,2218.79081 L856.108347,1536.86867" id="Stroke-4"></path>
                        <path d="M1842.50041,2157.3184 L1302.23423,1729.66812" id="Stroke-6"></path>
                        <g id="Group-11" transform="translate(0.000000, 0.833343)">
                            <polygon id="Stroke-7" points="607.201685 188.354789 0.320007324 1239.55687 0.320007324 1252.59222 607.201685 2303.79431 628.733136 2328.17372 1842.49649 2328.17372 1874.38119 2321.69729 2481.30411 1270.4127 2481.30411 1221.73639 1874.38119 170.493057 1842.49649 164.016633 628.733136 164.016633"></polygon>
                        </g>
                        <path d="M1307.40673,2333.64215 L1053.27786,1692.92988" id="Stroke-12"></path>
                        <path d="M1054.80404,804.451058 L1309.13915,163.202523" id="Stroke-13"></path>
                        <polyline id="Stroke-14" points="833.417828 1138.68819 767.586036 972.77622 942.766249 947.035526"></polyline>
                        <path d="M859.197821,959.303607 L758.841462,276.762709" id="Stroke-15"></path>
                        <polyline id="Stroke-16" points="2332.6049 1185.41745 971.79246 1725.27075 880.139426 1101.8427"></polyline>
                        <polyline id="Stroke-17" points="946.082588 1550.11028 769.376198 1524.12208 834.671767 1359.53014"></polyline>
                        <path d="M1287.10447,1600.22626 L1065.10779,1567.59663" id="Stroke-18"></path>
                        <path d="M2217.76225,1737.03144 L1391.97748,1615.67067" id="Stroke-19"></path>
                        <path d="M1391.02878,881.112124 L2216.02983,759.833855" id="Stroke-20"></path>
                        <path d="M1058.62773,929.974066 L1286.68787,896.436912" id="Stroke-21"></path>
                        <path d="M767.276676,1191.29986 L339.081291,650.291528" id="Stroke-22"></path>
                        <g id="Group-27" transform="translate(338.489670, 649.930178)">
                            <path d="M1817.76357,0.353098997 L909.235345,1148.33029 L672.059402,848.682215 L672.10065,848.805968 L356.099798,598.741728 C356.099798,598.741728 655.436462,361.795341 655.47771,361.795341 L905.729265,45.6468198 L1814.29874,1193.62401" id="Stroke-23" stroke-linejoin="round"></path>
                            <path d="M0.510330358,1189.06982 L424.872572,653.139569" id="Stroke-25"></path>
                        </g>
                    </g>
                </g>
                <g id="Group-4" transform="translate(5.000000, 650.000000)" stroke-width="2">
                    <polyline id="Stroke-7" stroke="url(#linearGradient-1)" points="0 597 0.320007324 603.425567 607.201685 1654.62765"></polyline>
                    <path d="M767.276676,541.29986 L339.081291,0.291527522" id="Stroke-22" stroke="url(#linearGradient-2)"></path>
                    <path d="M1273.25184,518.21305 L1450.01404,492.228319" id="Stroke-20" stroke="url(#linearGradient-3)"></path>
                    <path d="M900.082829,587.50523 L925.307676,415.902688" id="Stroke-3" stroke="url(#linearGradient-4)"></path>
                    <path d="M1058.62773,279.974066 L1286.68787,246.436912" id="Stroke-21" stroke="url(#linearGradient-5)"></path>
                    <polyline id="Stroke-1" stroke="url(#linearGradient-6)" points="1011 533 1010.34004 728.842277 1011.72755 731.246306 1236.95553 861.284861 1243.55727 863.494447"></polyline>
                </g>
                <g id="Group-2" transform="translate(0.000000, 926.000000)">
                    <circle id="Oval-4" fill="#3778CC" cx="1053" cy="447" r="4"></circle>
                    <circle id="Oval-4" fill="#3778CC" cx="905" cy="308" r="4"></circle>
                    <circle id="Oval-4" fill="#82CE66" cx="930" cy="140" r="4"></circle>
                    <circle id="Oval-4" fill="#3778CC" cx="772" cy="47" r="4"></circle>
                    <circle id="Oval-4" fill="#82CE66" cx="4" cy="322" r="4"></circle>
                    <circle id="Oval-4" fill="#82CE66" cx="772" cy="265" r="4"></circle>
                    <circle id="Oval-4" fill="#3778CC" cx="948" cy="21" r="4"></circle>
                    <circle id="Oval-4" fill="#82CE66" cx="1064" cy="4" r="4"></circle>
                    <circle id="Oval-4" fill="#3778CC" cx="1462" cy="38" r="4"></circle>
                    <circle id="Oval-4" fill="#3778CC" cx="1016" cy="258" r="4"></circle>
                    <circle id="Oval-4" fill="#3778CC" cx="1188" cy="218" r="4"></circle>
                    <circle id="Oval-4" fill="#3778CC" cx="1261" cy="89" r="4"></circle>
                    <circle id="Oval-4" fill="#82CE66" cx="1279" cy="242" r="4"></circle>
                    <circle id="Oval-4" fill="#3778CC" cx="1248" cy="438" r="4"></circle>
                    <circle id="Oval-4" fill="#3778CC" cx="1446" cy="321" r="4"></circle>
                    <circle id="Oval-4" fill="#3778CC" cx="1416" cy="151" r="4"></circle>
                    <circle id="Oval-4" fill="#3778CC" cx="1688" cy="323" r="4"></circle>
                    <circle id="Oval-4" fill="#82CE66" cx="1248" cy="586" r="4"></circle>
                    <circle id="Oval-4" fill="#3778CC" cx="1291" cy="674" r="4"></circle>
                    <circle id="Oval-4" fill="#3778CC" cx="934" cy="508" r="4"></circle>
                </g>
            </g>
        </g>
    </g>
</svg>